<?xml version="1.0" encoding="utf-8"?>
<!-- Generator: Adobe Illustrator 22.1.0, SVG Export Plug-In . SVG Version: 6.00 Build 0)  -->
<svg version="1.1" id="Layer_1" xmlns="http://www.w3.org/2000/svg" xmlns:xlink="http://www.w3.org/1999/xlink" x="0px" y="0px"
	 viewBox="0 0 106.8 106.9" style="enable-background:new 0 0 106.8 106.9;" xml:space="preserve">
<style type="text/css">
	.st0{fill:url(#SVGID_1_);}
	.st1{fill:url(#SVGID_2_);}
	.st2{fill:#FCEE21;}
	.st3{fill:url(#SVGID_3_);}
	.st4{fill:url(#SVGID_4_);}
	.st5{fill:url(#SVGID_5_);}
	.st6{fill:#6BA4F5;}
	.st7{fill:url(#SVGID_6_);}
	.st8{fill:url(#SVGID_7_);}
	.st9{opacity:0.92;}
	.st10{fill:url(#SVGID_8_);}
	.st11{fill:url(#SVGID_9_);}
</style>
<g>
	<radialGradient id="SVGID_1_" cx="53.55" cy="53.6406" r="51.4369" gradientUnits="userSpaceOnUse">
		<stop  offset="0" style="stop-color:#2D3292"/>
		<stop  offset="0" style="stop-color:#2E3192"/>
		<stop  offset="0.1585" style="stop-color:#343C9B"/>
		<stop  offset="0.4341" style="stop-color:#4358B4"/>
		<stop  offset="0.7916" style="stop-color:#5B86DB"/>
		<stop  offset="0.9987" style="stop-color:#6BA4F5"/>
	</radialGradient>
	<path class="st0" d="M69.5,84.6c-5.2,2.7-11.1,4.1-17.3,3.8c-18.3-0.7-33.1-15.6-33.7-33.8c-0.7-20.3,15.9-36.9,36.2-36.3
		C73.1,18.9,88,33.8,88.6,52.2c0.2,5-0.7,9.8-2.5,14.2c-1.3,3.3-0.2,7,2.7,9l0,0c4,2.8,9.5,1.1,11.3-3.4c2.5-6.2,3.7-12.9,3.5-20
		C102.9,25.3,81.1,3.7,54.5,3.2C26.1,2.7,2.9,25.9,3.4,54.3c0.5,27,22.7,48.9,49.6,49.1c8.4,0.1,16.4-1.9,23.4-5.5
		c4.2-2.1,5.4-7.5,2.5-11.2l0,0C76.7,83.8,72.8,82.9,69.5,84.6z"/>
	<radialGradient id="SVGID_2_" cx="53.55" cy="53.3387" r="21.2537" gradientUnits="userSpaceOnUse">
		<stop  offset="0" style="stop-color:#2D3292"/>
		<stop  offset="0" style="stop-color:#2E3192"/>
		<stop  offset="0.1585" style="stop-color:#343C9B"/>
		<stop  offset="0.4341" style="stop-color:#4358B4"/>
		<stop  offset="0.7916" style="stop-color:#5B86DB"/>
		<stop  offset="0.9987" style="stop-color:#6BA4F5"/>
	</radialGradient>
	<circle class="st1" cx="53.5" cy="53.3" r="21.3"/>
</g>
</svg>
