<?xml version="1.0" encoding="utf-8"?>
<!-- Generator: Adobe Illustrator 22.1.0, SVG Export Plug-In . SVG Version: 6.00 Build 0)  -->
<svg version="1.1" id="Forma_1_1_" xmlns="http://www.w3.org/2000/svg" xmlns:xlink="http://www.w3.org/1999/xlink" x="0px" y="0px"
	 viewBox="0 0 578 550" style="enable-background:new 0 0 578 550;" xml:space="preserve">
<style type="text/css">
	.st0{fill-rule:evenodd;clip-rule:evenodd;fill:#CCCCCC;}
	.st1{fill-rule:evenodd;clip-rule:evenodd;fill:#FFFFFF;}
</style>
<circle class="st0" cx="289" cy="275" r="275"/>
<g id="Forma_1">
	<g>
		<path class="st1" d="M288.4,295.3c51.4,0,93.1-41.7,93.1-93.1c0-51.4-41.7-92.8-93.1-92.8s-93.1,41.7-93.1,92.8
			C195.3,253.3,237,295.3,288.4,295.3z M288.4,133.7c37.7,0,68.6,30.8,68.6,68.5c0,37.7-30.9,68.5-68.6,68.5s-68.6-30.8-68.6-68.5
			C219.9,164.5,250.7,133.7,288.4,133.7z M346.1,311.5H231.9c-64.3,0-116.9,52.2-116.9,116.8c0,6.9,5.4,12.3,12.3,12.3h323.4
			c6.9,0,12.3-5.4,12.3-12.3C463,364.1,410.7,311.5,346.1,311.5z M140.4,416c6-44.8,44.6-79.9,91.4-79.9h114.3
			c46.9,0,85.4,34.8,91.4,79.9H140.4z"/>
	</g>
</g>
</svg>
